control3min_grf.mot
version=1
nRows=17
nColumns 19
inDegrees=yes
endheader
time	1_ground_force_vx	1_ground_force_vy	1_ground_force_vz	1_ground_force_px	1_ground_force_py	1_ground_force_pz	1_ground_torque_x	1_ground_torque_y	1_ground_torque_z	2_ground_force_vx	2_ground_force_vy	2_ground_force_vz	2_ground_force_px	2_ground_force_py	2_ground_force_pz	2_ground_torque_x	2_ground_torque_y	2_ground_torque_z
            2.502500	            0.174856	            4.880381	           -3.051931	           -0.233013	            0.005581	           -0.255695	            1.104570	            0.174847	            0.231230	           -0.184721	           -0.737437	            0.044380	           -0.232311	            0.006130	           -0.833667	           -0.074926	           -0.075422	           -0.132189
            2.503000	           -0.100511	            4.700652	           -3.189589	           -0.233013	            0.005581	           -0.255695	            0.941259	            0.110544	            0.088051	           -0.187544	            0.000495	           -0.328417	           -0.232311	            0.006130	           -0.833667	            0.000376	           -0.113163	           -0.075806
            2.503500	           -0.008319	            3.798752	           -3.056114	           -0.233013	            0.005581	           -0.255695	            0.804676	            0.082673	            0.129809	            0.093679	            0.000506	           -0.046968	           -0.232311	            0.006130	           -0.833667	           -0.112593	           -0.028900	            0.037647
            2.504000	           -0.007375	            3.616913	           -2.690040	           -0.233013	            0.005581	           -0.255695	            0.826689	            0.110421	            0.129880	            0.143167	           -0.735751	           -0.096544	           -0.232311	            0.006130	           -0.833667	           -0.112303	           -0.113839	           -0.000357
            2.504500	           -0.099175	            3.617092	           -2.735668	           -0.233013	            0.005581	           -0.255695	            0.715997	            0.138086	            0.126363	            0.184741	            0.737270	            0.002549	           -0.232311	            0.006130	           -0.833667	           -0.037288	           -0.085008	           -0.056838
            2.505000	           -0.236752	            3.256731	           -2.782728	           -0.233013	            0.005581	           -0.255695	            0.736576	            0.092453	           -0.030119	            0.328634	           -0.183132	            0.046132	           -0.232311	            0.006130	           -0.833667	           -0.074860	           -0.075960	            0.018612
            2.505500	           -0.098019	            2.894260	           -2.326057	           -0.233013	            0.005581	           -0.255695	            0.623636	            0.129081	            0.070186	            0.142502	           -0.551603	           -0.095887	           -0.232311	            0.006130	           -0.833667	           -0.112516	           -0.057056	           -0.019005
            2.506000	           -0.143925	            1.993316	           -2.421519	           -0.233013	            0.005581	           -0.255695	            0.534162	            0.156930	            0.031008	           -0.089068	           -1.289209	           -0.051488	           -0.232311	            0.006130	           -0.833667	           -0.056031	           -0.094596	           -0.038014
            2.506500	           -0.098082	            1.993325	           -2.421633	           -0.233013	            0.005581	           -0.255695	            0.552849	            0.138630	           -0.004758	           -0.184762	           -0.737103	           -0.049477	           -0.232311	            0.006130	           -0.833667	           -0.018615	           -0.047331	           -0.000161
            2.507000	           -0.464337	            1.812202	           -2.238072	           -0.233013	            0.005581	           -0.255695	            0.470254	            0.119562	            0.073724	           -0.231009	           -0.920918	           -0.190898	           -0.232311	            0.006130	           -0.833667	           -0.018701	           -0.019108	            0.037641
            2.507500	           -0.143793	            1.272253	           -2.424611	           -0.233013	            0.005581	           -0.255695	            0.365836	            0.054979	            0.087409	           -0.135918	           -1.289378	           -0.051468	           -0.232311	            0.006130	           -0.833667	           -0.093671	           -0.066642	            0.037504
            2.508000	           -0.143308	            2.352668	           -2.144838	           -0.233013	            0.005581	           -0.255695	            0.428162	            0.101782	           -0.044170	            0.047432	           -0.183310	           -0.188389	           -0.232311	            0.006130	           -0.833667	           -0.055948	           -0.104452	            0.075054
            2.508500	           -0.326125	            1.811049	           -1.963278	           -0.233013	            0.005581	           -0.255695	            0.364395	            0.129341	           -0.032895	            0.328593	           -0.182797	           -0.047725	           -0.232311	            0.006130	           -0.833667	           -0.018615	           -0.047331	           -0.000161
            2.509000	           -0.279941	            1.810468	           -1.825824	           -0.233013	            0.005581	           -0.255695	            0.226944	            0.120420	           -0.105830	            0.047515	           -0.183979	           -0.000677	           -0.232311	            0.006130	           -0.833667	           -0.018571	           -0.066035	           -0.056779
            2.509500	           -0.416412	            1.628406	           -1.413553	           -0.233013	            0.005581	           -0.255695	            0.246992	            0.120375	           -0.111738	           -0.184741	           -0.737270	           -0.002549	           -0.232311	            0.006130	           -0.833667	           -0.037290	           -0.075824	            0.018596
            2.510000	           -0.416964	            0.908523	           -1.691780	           -0.233013	            0.005581	           -0.255695	            0.240469	            0.083310	           -0.093057	           -0.137288	           -0.920747	           -0.144010	           -0.232311	            0.006130	           -0.833667	           -0.131293	           -0.057191	           -0.000146
            2.510500	           -0.417080	            2.170186	           -1.640513	           -0.233013	            0.005581	           -0.255695	            0.219221	            0.027363	            0.019500	           -0.326120	           -0.552290	           -0.377257	           -0.232311	            0.006130	           -0.833667	           -0.018598	           -0.047466	            0.037540
